<?xml version="1.0" encoding="UTF-8"?>
<svg id="Layer_2" data-name="Layer 2" xmlns="http://www.w3.org/2000/svg" viewBox="0 0 260.44 112.52">
  <defs>
    <!-- Upper arrow: points right, tip on right -->
    <linearGradient id="arrowGradTop" x1="0" y1="0" x2="62" y2="0" gradientUnits="userSpaceOnUse">
      <stop offset="0%" stop-color="rgb(76,162,118)"/>
      <stop offset="100%" stop-color="rgb(58,116,160)"/>
    </linearGradient>
    <!-- Lower arrow: points left, tip on left -->
    <linearGradient id="arrowGradBottom" x1="92" y1="0" x2="34" y2="0" gradientUnits="userSpaceOnUse">
      <stop offset="0%" stop-color="rgb(55,112,156)"/>
      <stop offset="100%" stop-color="rgb(77,163,118)"/>
    </linearGradient>
  </defs>

  <g id="Layer_1-2" data-name="Layer 1">
    <g>
      <g>
        <path d="M11.53,81.53V28.77h22.91c3.32,0,6.2.58,8.67,1.73,2.46,1.16,4.37,2.79,5.73,4.9s2.03,4.6,2.03,7.46v.9c0,3.17-.75,5.73-2.26,7.69s-3.37,3.39-5.58,4.3v1.36c2.01.1,3.57.79,4.67,2.07,1.1,1.28,1.66,2.98,1.66,5.09v17.26h-9.95v-15.83c0-1.21-.31-2.19-.94-2.94-.63-.75-1.67-1.13-3.13-1.13h-13.87v19.89h-9.95ZM21.48,52.59h11.91c2.36,0,4.21-.64,5.54-1.92,1.33-1.28,2-2.98,2-5.09v-.75c0-2.11-.65-3.81-1.96-5.09-1.31-1.28-3.17-1.92-5.58-1.92h-11.91v14.77Z"/>
        <path d="M71.22,82.58c-3.72,0-7-.79-9.83-2.37-2.84-1.58-5.05-3.82-6.63-6.71-1.58-2.89-2.37-6.29-2.37-10.21v-.9c0-3.92.78-7.32,2.34-10.21,1.56-2.89,3.74-5.12,6.56-6.71,2.81-1.58,6.08-2.37,9.8-2.37s6.86.82,9.57,2.45c2.71,1.63,4.82,3.89,6.33,6.78,1.51,2.89,2.26,6.24,2.26,10.06v3.24h-27.2c.1,2.56,1.05,4.65,2.86,6.25,1.81,1.61,4.02,2.41,6.63,2.41s4.62-.58,5.88-1.73c1.26-1.16,2.21-2.44,2.86-3.84l7.76,4.07c-.7,1.31-1.72,2.73-3.05,4.26-1.33,1.53-3.1,2.84-5.31,3.92-2.21,1.08-5.02,1.62-8.44,1.62ZM62.1,58.54h17.48c-.2-2.16-1.07-3.89-2.6-5.2-1.53-1.31-3.53-1.96-5.99-1.96s-4.6.65-6.1,1.96c-1.51,1.31-2.44,3.04-2.79,5.2Z"/>
        <path d="M115.08,82.58c-4.07,0-7.66-.73-10.78-2.19-3.12-1.46-5.55-3.54-7.31-6.25-1.76-2.71-2.64-5.98-2.64-9.8v-2.11h9.8v2.11c0,3.17.98,5.54,2.94,7.12,1.96,1.58,4.62,2.37,7.99,2.37s5.96-.68,7.65-2.03c1.68-1.36,2.53-3.09,2.53-5.2,0-1.46-.42-2.64-1.24-3.54s-2.03-1.64-3.62-2.22c-1.58-.58-3.5-1.12-5.76-1.62l-1.73-.38c-3.62-.8-6.72-1.82-9.31-3.05-2.59-1.23-4.57-2.85-5.95-4.86-1.38-2.01-2.07-4.62-2.07-7.84s.77-5.96,2.3-8.25c1.53-2.29,3.69-4.04,6.48-5.27,2.79-1.23,6.07-1.85,9.83-1.85s7.12.64,10.06,1.92c2.94,1.28,5.25,3.19,6.93,5.73,1.68,2.54,2.52,5.71,2.52,9.53v2.26h-9.8v-2.26c0-2.01-.39-3.63-1.17-4.86-.78-1.23-1.9-2.13-3.35-2.71-1.46-.58-3.19-.87-5.2-.87-3.01,0-5.24.56-6.67,1.7-1.43,1.13-2.15,2.67-2.15,4.63,0,1.31.34,2.41,1.02,3.32.68.9,1.7,1.66,3.05,2.26s3.09,1.13,5.2,1.58l1.73.38c3.77.8,7.05,1.83,9.83,3.09,2.79,1.26,4.96,2.92,6.52,4.97,1.56,2.06,2.34,4.7,2.34,7.91s-.82,6.04-2.45,8.48c-1.63,2.44-3.94,4.35-6.93,5.73-2.99,1.38-6.52,2.07-10.59,2.07Z"/>
        <path d="M139.34,96.6v-52.45h9.34v4.52h1.36c.85-1.46,2.19-2.75,3.99-3.88,1.81-1.13,4.4-1.7,7.76-1.7,3.01,0,5.8.74,8.37,2.22,2.56,1.48,4.62,3.65,6.18,6.52,1.56,2.86,2.34,6.33,2.34,10.4v1.21c0,4.07-.78,7.54-2.34,10.4-1.56,2.86-3.62,5.04-6.18,6.52s-5.35,2.22-8.37,2.22c-2.26,0-4.16-.26-5.69-.79-1.53-.53-2.76-1.21-3.69-2.03-.93-.83-1.67-1.67-2.22-2.52h-1.36v19.37h-9.5ZM158.93,74.29c2.96,0,5.41-.94,7.35-2.83,1.93-1.88,2.9-4.63,2.9-8.25v-.75c0-3.62-.98-6.37-2.94-8.25-1.96-1.88-4.4-2.83-7.31-2.83s-5.35.94-7.31,2.83c-1.96,1.88-2.94,4.63-2.94,8.25v.75c0,3.62.98,6.37,2.94,8.25,1.96,1.88,4.4,2.83,7.31,2.83Z"/>
        <path d="M201.06,82.58c-3.72,0-7-.79-9.83-2.37-2.84-1.58-5.05-3.82-6.63-6.71-1.58-2.89-2.37-6.29-2.37-10.21v-.9c0-3.92.78-7.32,2.34-10.21,1.56-2.89,3.74-5.12,6.56-6.71,2.81-1.58,6.08-2.37,9.8-2.37s6.86.82,9.57,2.45c2.71,1.63,4.82,3.89,6.33,6.78,1.51,2.89,2.26,6.24,2.26,10.06v3.24h-27.21c.1,2.56,1.05,4.65,2.86,6.25,1.81,1.61,4.02,2.41,6.63,2.41s4.62-.58,5.88-1.73c1.26-1.16,2.21-2.44,2.86-3.84l7.76,4.07c-.7,1.31-1.72,2.73-3.05,4.26-1.33,1.53-3.1,2.84-5.31,3.92-2.21,1.08-5.02,1.62-8.44,1.62ZM191.94,58.54h17.48c-.2-2.16-1.07-3.89-2.6-5.2-1.53-1.31-3.53-1.96-5.99-1.96s-4.6.65-6.1,1.96c-1.51,1.31-2.44,3.04-2.79,5.2Z"/>
        <path d="M241.68,82.58c-3.62,0-6.9-.75-9.83-2.26-2.94-1.51-5.26-3.69-6.97-6.56s-2.56-6.33-2.56-10.4v-1.06c0-4.07.85-7.54,2.56-10.4s4.03-5.05,6.97-6.56c2.94-1.51,6.22-2.26,9.83-2.26s6.63.63,9.19,1.88c2.56,1.26,4.63,2.98,6.22,5.16,1.58,2.18,2.62,4.66,3.13,7.42l-9.19,1.96c-.2-1.51-.65-2.86-1.36-4.07-.7-1.21-1.7-2.16-2.98-2.86-1.28-.7-2.88-1.06-4.79-1.06s-3.63.42-5.16,1.24c-1.53.83-2.74,2.06-3.62,3.69-.88,1.63-1.32,3.63-1.32,5.99v.75c0,2.36.44,4.36,1.32,5.99.88,1.63,2.08,2.86,3.62,3.69,1.53.83,3.25,1.24,5.16,1.24,2.86,0,5.04-.74,6.52-2.22,1.48-1.48,2.42-3.43,2.83-5.84l9.19,2.19c-.65,2.66-1.77,5.09-3.35,7.27s-3.66,3.91-6.22,5.16c-2.56,1.26-5.63,1.88-9.19,1.88Z"/>
      </g>
      <g fill="url(#arrowGradTop)">
        <path d="M6.05,29.59c0-.51.25-12.59,14.77-12.6h32.78l-6.27,6.27c-.49.49-.8,1.18-.8,1.93,0,1.51,1.23,2.74,2.74,2.74.76,0,1.44-.31,1.94-.8h0l10.94-10.94s.04-.06.06-.09c.22-.23.39-.49.52-.78v-.02s0,0,0,0c.11-.28.18-.61.18-.96,0-.16-.01-.31-.04-.46v.02c-.02-.13-.04-.24-.07-.35v.02c-.11-.49-.34-.91-.66-1.25h0S51.2,1.38,51.2,1.38c-.49-.5-1.18-.8-1.94-.8-1.51,0-2.74,1.23-2.74,2.74,0,.75.31,1.44.8,1.93h0l6.27,6.27H20.82c-15.92.01-20.2,11.8-20.24,18.03v.02c0,1.51,1.21,2.73,2.72,2.74h.02c1.5,0,2.72-1.21,2.74-2.72h0Z"/>
        <path d="M3.31,32.89c-1.84-.01-3.31-1.5-3.31-3.31.04-6.45,4.45-18.62,20.81-18.63h31.39l-5.29-5.28c-.63-.63-.97-1.46-.97-2.34,0-1.83,1.49-3.32,3.31-3.32.89,0,1.72.35,2.35.97l10.94,10.94-.34.33.34-.33c.39.41.67.92.8,1.48h0c.03.12.06.25.08.39.03.18.04.36.04.55,0,.37-.06.73-.17,1.06l-.04.11c-.16.37-.36.68-.61.94-.02.04-.06.1-.12.15l-10.93,10.93c-.63.63-1.46.97-2.35.97-1.83,0-3.31-1.49-3.31-3.32,0-.89.34-1.72.97-2.34l5.28-5.28h-31.38c-13.92,0-14.19,11.52-14.19,12.02h0c-.01,1.82-1.5,3.29-3.31,3.29ZM20.82,12.1c-15.46,0-19.62,11.43-19.66,17.46,0,1.2.96,2.16,2.14,2.17,1.2,0,2.16-.96,2.17-2.14h0c0-.54.29-13.16,15.35-13.17h34.18l-7.26,7.26c-.41.41-.63.95-.63,1.53,0,1.19.97,2.16,2.16,2.16.58,0,1.12-.22,1.53-.63l10.9-10.9s.05-.07.08-.11c.17-.18.31-.37.41-.59v-.04c.1-.23.15-.48.15-.75,0-.12-.01-.25-.03-.36h.05s-.05,0-.05,0c-.01-.1-.03-.19-.05-.28h0c-.09-.38-.26-.71-.52-.98L50.79,1.79c-.41-.41-.95-.63-1.53-.63-1.19,0-2.16.97-2.16,2.16,0,.58.22,1.12.63,1.53l7.26,7.26H20.82Z"/>
      </g>
      <g fill="url(#arrowGradBottom)">
        <path d="M91.71,81.16c-1.44.06-2.6,1.19-2.69,2.62h0c-.02,1.26-.6,12.27-14.37,12.28h-31.88l6.1-6.1c.59-.59.91-1.46.73-2.39-.19-1.04-1.03-1.9-2.07-2.1-.94-.19-1.83.13-2.42.72h0l-10.64,10.64s-.03.06-.06.09c-.21.22-.39.48-.51.76v.02s0,0,0,0c-.08.2-.14.43-.16.66h0c0,.08,0,.16,0,.24,0,.16.01.32.03.47v-.02c.08.6.34,1.12.71,1.54h0s10.64,10.64,10.64,10.64c.6.6,1.49.91,2.44.72,1.04-.21,1.88-1.07,2.06-2.11.17-.93-.15-1.79-.74-2.38l-6.1-6.1h31.89c15.48-.01,19.65-11.48,19.69-17.54v-.05c0-1.45-1.18-2.63-2.63-2.63h0Z"/>
        <path d="M47,112.52c-.84,0-1.64-.33-2.24-.92l-10.64-10.64.14-.16-.16.14c-.45-.5-.74-1.12-.84-1.79-.03-.17-.04-.35-.04-.53,0-.1,0-.2.01-.28.02-.25.08-.52.17-.76v-.04c.18-.39.39-.69.64-.96-.04.04,0-.03.06-.09l10.64-10.64c.75-.75,1.82-1.07,2.88-.86,1.25.25,2.24,1.25,2.47,2.5.19,1.06-.13,2.09-.87,2.83l-5.24,5.24h30.68c13.29,0,13.85-10.57,13.87-11.78.11-1.72,1.47-3.05,3.17-3.12h.02c1.73,0,3.13,1.4,3.13,3.12-.04,6.28-4.31,18.08-20.19,18.09h-30.68l5.25,5.24c.74.74,1.06,1.77.88,2.82-.22,1.25-1.21,2.26-2.46,2.52-.21.04-.43.06-.65.06ZM34.84,100.26l10.63,10.63c.52.52,1.25.74,1.98.59.83-.17,1.52-.87,1.67-1.71.13-.72-.09-1.43-.6-1.93l-6.95-6.95h33.09c15.09-.01,19.15-11.16,19.19-17.04,0-1.21-.95-2.17-2.12-2.17-1.18.05-2.12.97-2.2,2.15-.02,1.29-.62,12.74-14.86,12.75h-33.09l6.95-6.95c.51-.51.73-1.22.6-1.95-.15-.84-.84-1.54-1.68-1.7-.73-.14-1.45.07-1.97.59l-10.63,10.63s0,.03-.05.08c-.17.18-.3.37-.4.58l-.02.05c-.07.16-.11.34-.12.51,0,.08,0,.14,0,.21,0,.13,0,.26.03.38h0s0,0,0,0h0s0,0,0,0c0,0,0,0,0,0h0c.07.47.27.91.58,1.25Z"/>
      </g>
    </g>
  </g>
</svg>